<svg width="400" height="400" viewBox="0 0 400 400" fill="none" xmlns="http://www.w3.org/2000/svg">
<path d="M62.8999 127.319C66.0199 134.759 90.1799 129.319 83.2599 120.019C77.2199 111.999 60.3999 121.379 62.8999 127.319Z" fill="#3D9CFB"/>
<path d="M118.16 54.5396C109.2 61.9996 127.16 75.2196 131.3 63.3996C135.3 76.4596 154.96 67.7596 148.52 56.8796C155.72 60.4196 158.64 48.4996 155.24 44.4396C154.135 43.18 152.589 42.3924 150.92 42.2396C163.7 33.1196 142.92 18.9197 137.2 32.8396C137.2 15.1197 111.32 26.1196 120.58 39.6996C110.48 36.2596 107.38 54.5596 118.16 54.5396ZM116.62 45.7596C117.8 41.5796 122.78 46.1196 125.36 43.5196C128.44 40.4196 118.76 31.8196 127.36 28.8996C135.96 25.9796 129.54 38.3796 135 40.0796C141.12 41.9596 141.42 27.4596 148.26 32.8996C154.66 37.9796 141.54 39.3996 143.62 44.4196C145.7 49.4396 154 43.6796 151.62 51.0796C150.18 55.4196 143.62 47.3196 141.4 51.5196C139.18 55.7196 148.08 60.3196 143.4 63.7996C139.16 66.9796 136.64 63.7996 134.94 60.0196C129.22 47.0196 126.94 73.5596 120.4 59.3596C119.3 57.0396 126.4 56.0396 125.38 52.4396C124 47.2796 114.56 52.9596 116.62 45.7596Z" fill="#3D9CFB"/>
<path d="M54.0003 115.26C55.9037 122.878 55.8349 130.856 53.8003 138.44C34.1203 112.26 20.6403 143.62 51.4203 145.44C43.1203 158.14 45.4203 157.78 46.2603 158.66C49.1803 161.42 66.2603 138.36 58.5603 113.72C74.1403 108.64 75.7403 78.8599 57.5603 74.0199C42.9203 70.1199 24.7203 85.2999 30.6203 100.86C34.9203 113.3 44.2403 117.34 54.0003 115.26ZM35.5203 100.26C41.6803 90.2599 48.3803 100.26 52.6203 110.7C46.6203 112 39.0803 109.8 35.5403 100.26H35.5203ZM65.8803 89.9999C66.7911 93.6947 66.4253 97.5891 64.8421 101.05C63.2589 104.51 60.5515 107.333 57.1603 109.06C51.0003 100.5 55.4603 85.1799 65.8803 89.9999ZM63.6803 84.2199C57.0003 83.9199 51.1403 88.5399 49.6803 96.0199C44.9003 91.4199 40.6003 89.0399 34.5403 93.7999C35.2003 79.9999 56.4003 71.9999 63.6803 84.2399V84.2199Z" fill="#3D9CFB"/>
<path d="M69.4198 326.36C62.5798 321.44 52.9998 327.7 54.7598 336.58C52.8166 332.226 50.0528 328.288 46.6198 324.98C44.2998 322.98 41.1198 326.62 43.4798 328.62C46.1826 331.344 48.389 334.518 49.9998 338C48.4744 338.186 47.019 338.748 45.7642 339.634C44.5094 340.52 43.4944 341.706 42.8104 343.082C42.1264 344.458 41.7948 345.982 41.8454 347.518C41.8958 349.052 42.3268 350.552 43.0998 351.88C38.808 348.248 35.0688 344.01 31.9998 339.3C31.767 338.728 31.323 338.268 30.7598 338.016C30.1968 337.762 29.558 337.736 28.976 337.942C28.3942 338.148 27.914 338.57 27.6354 339.122C27.3568 339.672 27.301 340.31 27.4798 340.9C31.6336 347.684 37.1334 353.544 43.6398 358.12C32.1398 363.48 40.1998 377.88 52.4998 376.22C62.7398 376.06 69.4798 371.6 79.4598 369.06C80.0124 368.884 80.4818 368.514 80.78 368.016C81.0784 367.52 81.185 366.93 81.0798 366.36C76.4798 354.96 78.5198 332.88 69.4198 326.36ZM65.2398 368.36C35.9398 379.92 33.5198 351.38 67.2398 367.64L65.2398 368.36ZM46.8198 347.32C48.2598 331.98 65.6598 359.32 71.8198 363.68C55.6198 360.98 46.3198 352.78 46.8198 347.28V347.32ZM66.5598 350.54C48.5598 330.28 71.0798 311.28 74.2798 359.26C71.4998 356.3 68.9798 353.24 66.5598 350.5V350.54Z" fill="#3D9CFB"/>
<path d="M237.26 96.4995C213.76 69.7595 192.4 74.9795 179.26 83.8595C175.756 86.2939 171.511 87.4259 167.26 87.0595C160.6 86.7995 130.5 82.1195 114 126C114 126 100.2 170.46 94.6003 178.84C89.0003 187.22 80.6003 200.06 69.2003 201.34C61.5403 202.22 57.6803 196.98 51.2003 198.5C37.9203 201.56 37.2003 233.54 52.0203 262.3C67.8003 293.08 92.9803 304.3 116.02 307.86C103.12 262.8 109.4 227.36 152.98 222.26C167.22 194.8 151.96 175.94 145.6 160.26C135.24 135.14 152.2 113.52 173.5 105.2C212.1 90.1395 244.62 120.78 250.7 164.3C250.7 164.3 260.78 123.24 237.26 96.4995Z" fill="#3D9CFB"/>
<path d="M329.06 303.339C307.96 304.679 297.2 292.159 294.04 296.239C292.24 298.579 294.66 299.439 297.48 300.919C294.82 314.699 292.34 327.659 289.82 333.659C286.46 329.799 278.54 329.419 276.34 334.779C272.94 343.159 285.14 347.699 290.98 342.419C296.12 337.779 297.4 328.119 300.48 311.039C307.2 313.419 321.84 316.639 325.3 317.399C324.46 326.225 322.316 334.879 318.94 343.079C315.38 339.999 312.18 340.179 310.12 341.759C305.88 344.999 309.32 354.579 316.94 353.439C320.94 352.839 324.26 351.819 327.58 335.579C330.46 321.539 333.76 303.639 329.06 303.339ZM301.44 305.799C301.62 304.859 301.8 303.919 301.98 302.939C309.68 306.169 317.912 307.945 326.26 308.179C326.14 309.479 326.02 310.719 325.9 311.939C317.56 311.999 306.18 307.719 301.44 305.799Z" fill="#001434"/>
<path d="M274 111.259C284.26 107.879 279.5 93.9793 272.7 73.4993C274.058 74.9175 275.784 75.9275 277.686 76.4153C279.588 76.9031 281.588 76.8491 283.46 76.2593C293.2 73.9993 288.44 56.6193 282.7 61.4393C275.18 72.1993 266.7 62.0193 266.3 69.7393C269.24 78.1393 273.5 89.8593 274.62 95.3393C256.7 87.0593 257.06 116.799 274 111.259Z" fill="#001434"/>
<path d="M179.26 171.999C189.26 175.359 204.72 168.839 212.34 161.519C214.22 159.719 212.34 154.979 208.84 157.519C203 161.799 192.98 168.279 179.66 167.159C179.018 167.106 178.382 167.31 177.89 167.727C177.399 168.143 177.093 168.738 177.04 169.379C176.987 170.021 177.191 170.658 177.607 171.149C178.024 171.64 178.618 171.946 179.26 171.999Z" fill="#001434"/>
<path d="M74.5402 222.8C64.4002 230.28 59.0002 218.16 56.5402 225.54C57.0602 233.98 57.9402 245.86 57.5402 251.14C43.7202 239.24 34.9802 266.26 52.4802 265.4C63.8202 264.84 62.8602 251 61.6802 230.84C68.4202 242.22 83.6802 235.06 77.8602 223.3C77.479 222.804 76.92 222.474 76.301 222.38C75.682 222.288 75.0508 222.438 74.5402 222.8Z" fill="#001434"/>
<path d="M204.72 127.26C210.168 124.385 216.366 123.247 222.48 124C225.56 124.3 225.68 120.56 222.72 119.54C218.28 118.04 206.42 119.54 202.44 123.4C200.74 125.04 202.62 128.44 204.72 127.26Z" fill="#001434"/>
<path d="M167.06 127.82C169.74 126.4 167.06 121.58 163.92 122.82C153.92 126.96 135.74 147.38 142.68 149.38C143.266 149.604 143.915 149.601 144.5 149.372C145.084 149.143 145.562 148.703 145.84 148.14C148.42 142.24 158.28 132.48 167.06 127.82Z" fill="#001434"/>
<path d="M376.52 87.5994C371.58 86.8594 364.3 88.4794 356.52 91.3994C355 82.6794 363.12 80.6394 366.3 73.2394C367.336 70.7874 367.86 68.1492 367.84 65.487C367.82 62.825 367.254 60.1952 366.18 57.7594C365.93 57.1734 365.458 56.7102 364.868 56.472C364.278 56.234 363.616 56.2402 363.03 56.4894C362.444 56.7388 361.98 57.2108 361.742 57.8014C361.504 58.3922 361.51 59.0534 361.76 59.6394C368.46 75.7594 347.32 79.6394 352.02 93.1794C348.96 94.4594 345.88 95.8794 342.84 97.3994C341.886 95.8148 340.412 94.6098 338.668 93.99C336.924 93.37 335.02 93.3734 333.28 93.9994C329.28 95.0394 329.98 99.8394 332.84 99.0594C336.06 98.1794 336.84 98.4394 338.4 99.6994C331.672 103.266 325.284 107.444 319.32 112.179C317.66 110.499 318.02 108.999 318.74 106.539C321.66 96.6594 313.34 97.4394 307.94 92.7594C305.4 90.5394 317.82 76.3994 313.94 74.2994C313.68 74.118 313.388 73.99 313.08 73.9228C312.77 73.8558 312.45 73.8508 312.14 73.9086C311.828 73.9664 311.532 74.0854 311.268 74.259C311.004 74.4326 310.776 74.6572 310.6 74.9194C296.74 96.2594 302.86 95.6194 314.38 101.599C315.04 105.339 310.86 111.399 315.68 115.399C304.7 132.059 324.64 127.999 298.82 152.599C289.98 143.419 274.92 151.199 277.56 162.959C270.838 160.253 263.62 158.999 256.38 159.279C267.48 109.999 217.78 49.4794 172 75.3194C169.26 76.8594 167.3 79.1194 163.78 79.9994C160.773 80.5354 157.7 80.576 154.68 80.1194C137.32 79.4994 120.88 83.8994 105.48 103.199C83.8601 131.719 86.3601 165.199 63.6001 193.459C42.8001 219.339 33.4801 201.019 22.2801 204.319C19.0801 205.259 11.0601 208.679 10.2801 224.779C9.58126 239.993 12.3531 255.167 18.3858 269.153C24.4185 283.137 33.5537 295.567 45.1001 305.499C59.2047 318.113 76.6879 326.329 95.4001 329.139C101.4 361.439 131.82 368.739 162.24 359.539C185.5 375.819 214.94 367.299 229.98 343.539C237.5 332.159 235.98 316.299 241.78 304.619C248.2 292.019 264.34 284.779 273.26 281.259C290.18 274.559 289.4 262.779 278.98 256.359C272.84 253.859 263.08 252.459 260.2 246.499C266.68 239.959 272.32 234.199 276.2 229.699C285 245.899 295.16 264.479 305.52 272.619C322.82 286.239 353.64 276.759 355.78 253.319C357.58 233.799 348.82 217.699 339.92 200.039C331.92 184.039 339.08 174.659 329.42 166.719C342.52 144.939 360.22 160.519 360.62 135.539C360.84 122.859 361.5 120.639 371.72 120.099C391.84 119.019 398 91.2994 376.52 87.5994ZM344.9 101.719C347.98 100.159 351.12 98.6994 354.16 97.4194C356.012 99.903 358.246 102.077 360.78 103.859C354.44 115.059 321.14 152.999 311.34 166.479C310.72 165.579 310.04 164.599 309.34 163.579C320.08 153.339 331.74 126.119 345.12 117.179C349.18 114.419 345.3 104.619 344.9 101.719ZM318.62 119.319L319.54 118.379C321.312 119.461 323.164 120.403 325.08 121.199C322.58 123.959 320.28 126.399 317.62 129.539C317.1 125.759 316.34 121.699 318.62 119.319ZM305.02 153.059C313.52 144.079 322.5 131.059 331.02 121.699C334.46 117.899 326.02 117.239 323.36 115.039C328.798 110.897 334.562 107.205 340.6 103.999C341.502 106.969 342.132 110.015 342.48 113.099C330.82 121.619 317.16 148.679 306.32 159.819C305.14 158.439 303.86 157.039 302.54 155.819L305.02 153.059ZM279.12 168.859C279.62 170.319 280.16 171.799 280.76 173.299C268.26 182.439 257.34 198.499 247.3 208.559C241.3 207.439 238.62 205.299 239.62 199.799C250.54 189.799 251.14 176.819 255.32 164.199C263.526 163.613 271.74 165.222 279.12 168.859ZM139.24 173.819C122.3 146.639 133.14 124.239 152.22 111.499C168.22 100.819 189.74 96.4994 207.66 105.799C198.92 104.619 178.76 111.339 181.66 116.879C182.089 117.506 182.723 117.964 183.452 118.176C184.182 118.387 184.962 118.339 185.66 118.039C193.627 112.296 203.476 109.787 213.22 111.019C234.92 117.239 257.48 164.599 242.1 188.719C242.42 184.279 240.56 180.939 234.94 180.719C221.38 180.599 207.3 199.839 205.72 213.259C193.98 219.259 165.72 225.499 145.72 220.679C153.68 201.599 147.78 187.539 139.24 173.819ZM204.66 219.199C204.12 243.699 184.66 234.419 168.2 239.699C166.75 234.931 164.074 230.629 160.44 227.219C175.64 226.819 193.16 224.179 204.66 219.199ZM184.8 242.239C200.06 242.039 208.6 236.679 209.14 221.399C209.46 211.899 217.14 193.799 227.36 187.819C230.44 185.999 235.36 184.839 237.14 186.259C238.92 187.679 236.16 193.419 235.48 197.259C234.3 203.979 234.26 210.459 243.64 212.619C232.92 224.619 224.94 233.199 210.4 248.619C204.68 248.759 197.68 253.579 190.4 259.699C185.76 248.759 177.46 246.619 170.4 251.959C170.269 249.413 169.955 246.879 169.46 244.379C174.409 242.777 179.601 242.051 184.8 242.239ZM266 194.859C265.774 196.851 265.734 198.86 265.88 200.859C246.68 219.399 239.56 232.099 220.22 251.479C219.012 250.549 217.662 249.819 216.22 249.319C231.56 233.159 240.28 223.719 266 194.859ZM266.74 206.859C267.164 208.805 267.692 210.729 268.32 212.619C256.6 226.459 239.16 247.619 226.06 261.079C225.938 258.837 225.104 256.695 223.68 254.959C243.24 235.099 250.48 222.859 266.74 206.779V206.859ZM23.6601 269.359C10.1201 239.359 11.6601 212.119 23.6601 208.419C32.6401 205.679 45.3201 223.919 67.2401 196.419C90.2201 168.119 88.1001 134.079 109.24 106.079C131.36 77.9994 155.48 86.8794 164.46 84.5194C168.68 83.3994 172.3 80.0794 176.28 78.2594C218.68 59.0594 259.86 112.039 251.84 157.879C244.58 128.599 228.82 108.119 203.02 98.4194C177.22 88.7194 132.56 108.899 126.4 137.799C119.48 170.159 156 187.499 140.68 220.379C90.8001 221.519 82.6801 280.979 93.8201 324.219C73.5401 322.119 38.0001 301.319 23.6601 269.359ZM142.12 225.199C170.56 225.979 166.56 263.779 160.84 281.319C135.18 286.199 108.96 305.779 99.4201 326.359C86.4401 283.359 96.2201 223.999 142.12 225.199ZM143.56 357.999C128 359.999 106 353.999 101.82 333.499C116.78 295.939 157.52 287.499 164.94 285.239C170.6 283.519 169.42 255.539 177.08 254.039C184.74 252.539 186.06 270.319 194.5 262.719C207.46 246.719 231.3 253.919 216.16 272.939C213.082 276.071 209.736 278.929 206.16 281.479C205.756 281.779 205.456 282.199 205.302 282.677C205.148 283.155 205.146 283.671 205.298 284.151C205.45 284.629 205.748 285.051 206.15 285.353C206.552 285.655 207.038 285.825 207.54 285.839C209.96 285.379 211.86 283.159 217.1 278.859C219.098 284.111 220.304 289.631 220.68 295.239C216.92 298.159 211.62 301.419 211.56 301.459C211.116 301.733 210.774 302.145 210.586 302.631C210.398 303.119 210.374 303.653 210.516 304.155C210.658 304.657 210.96 305.097 211.376 305.413C211.792 305.727 212.298 305.899 212.82 305.899C214.82 305.539 216.04 304.179 220.52 301.319C218.76 333.179 177.66 353.439 143.56 357.999ZM272.34 259.179C284.1 261.039 283.8 273.039 271.46 276.719C259.66 281.079 244.16 289.059 237.46 302.419C231.46 314.159 232.98 329.759 225.9 340.899C213 361.039 189.24 369.679 168.36 357.699C204.6 346.419 233.64 318.859 223.74 284.099C234.72 272.099 246.18 260.539 256.66 249.999C260 255.299 267 257.519 272.34 259.179ZM222 278.739C221.6 277.513 221.16 276.253 220.68 274.959C232.42 259.819 256.14 235.899 270.24 217.679C271.28 220.199 272.46 222.699 273.7 225.119C264.24 236.279 242 256.939 222 278.739ZM330.94 184.379C331.26 204.079 354.94 228.379 350.94 252.779C347.1 275.879 319.2 278.539 307.7 267.539C296.96 257.279 289.14 243.539 280.58 227.839C270.36 209.839 263.74 189.679 282.58 177.839C285.04 182.239 285.74 183.559 287.2 183.959C288.66 184.359 290.26 181.819 289.2 180.279C287.982 178.074 286.912 175.789 286 173.439C281.12 161.439 280.2 152.459 290 153.299C296 153.799 303.36 164.719 308.26 170.739C313.16 176.759 330.52 158.679 330.96 184.379H330.94ZM385.1 103.699C380.52 126.799 354.5 101.899 355.76 135.139C355.36 154.619 338.62 141.519 324.76 164.899C322.694 164.57 320.586 164.57 318.52 164.899C330.2 150.119 365.14 109.259 366.08 103.839C366.52 99.5394 362.82 101.019 358.78 95.5794C370.26 90.3994 386.18 90.4794 385.12 103.699H385.1Z" fill="#001434"/>
<path d="M188 136.98C199.4 136.06 208.74 139.66 198.9 150.04C195.66 153.46 199.2 155.9 201.92 153.76C208.84 148.36 208.66 142.42 207.02 138.48C204.22 132 192.48 131.08 186 132.74C181.86 133.82 182.36 137.44 188 136.98Z" fill="#001434"/>
<path d="M151.56 156.44C150.8 158.44 155.14 161.46 156.82 158.04C160.06 151.46 165.46 145.08 172.52 143.52C173.82 143.22 174.94 141.84 174.36 140.66C171.24 134.4 156 145.32 151.56 156.44Z" fill="#001434"/>
</svg>
