<svg width="400" height="400" viewBox="0 0 400 400" fill="none" xmlns="http://www.w3.org/2000/svg">
<path d="M280 294.159C248.78 299.059 238.86 274.859 238.86 274.859C220.06 284.279 213.74 302.599 209.64 314.119C198 346.839 203.64 376.499 215.24 378.319C215.24 378.319 210.9 346.319 235.7 334.199C246.348 328.897 258.16 326.365 270.046 326.837C281.932 327.309 293.506 330.769 303.7 336.899C302.68 329.199 301.09 321.583 298.94 314.119C286.26 325.399 281.22 304.219 280 294.159Z" fill="#3D9CFB"/>
<path d="M374.7 304.72C371.72 260.72 351.62 258.2 351.62 258.2C350.98 270.52 347.78 273.94 345.22 279.48C368.26 326.4 361.1 359.98 347.22 374.86C377.5 374 376.5 331.2 374.7 304.72Z" fill="#3D9CFB"/>
<path d="M327.84 133.54C341.2 92.1802 313.5 82.0002 313.5 82.0002C318.9 65.5002 312.48 54.1802 301.64 52.3002C298.84 32.8602 282.34 11.3602 240.06 14.5802C197.78 17.8002 192.84 36.5002 192 51.1002C181.62 51.4602 170.38 55.2002 171.28 79.1002C138.78 94.4602 167.58 140.46 167.58 140.46C176.484 134.044 186.004 128.53 196 124C183.64 102.28 190.28 66.0002 194.44 60.3202C198.6 54.6402 209.42 54.0602 226.26 56.0402C243.1 58.0202 256.26 51.6002 264.46 39.4602C264.16 55.2202 269.66 56.4602 279.64 60.6802C294.82 67.1202 289.76 100.28 281.74 121.84C311.86 138.12 312.54 145.72 316.84 160.94C329.3 158.94 336.08 162.58 336.08 162.58C341.86 139.5 327.84 133.54 327.84 133.54Z" fill="#3D9CFB"/>
<path d="M242.9 117.1C233.8 118.16 227.7 114.08 227.34 118.52C226.98 122.96 237.62 123.44 243.84 121.14C246 120.34 246.56 116.66 242.9 117.1Z" fill="#001434"/>
<path d="M221.6 79.3598C223.6 62.0398 204.54 60.6798 192.26 64.8198C188.26 66.1998 186.26 71.5998 185.68 75.6798C183.94 89.3998 193.38 91.6798 205.84 91.9198C215.2 92.1398 220.44 88.7998 221.6 79.3598ZM213.02 86.2598C209.42 87.9398 195.02 87.4798 191.92 84.2598C198.92 81.1198 209.02 76.2598 215.4 71.0998C217.48 74.8598 218.26 82.8598 213.02 86.2598Z" fill="#001434"/>
<path d="M63.44 208.2C65.12 208.84 72.36 203.44 79.44 204.38C79.779 204.396 80.1178 204.344 80.4354 204.224C80.753 204.104 81.0426 203.92 81.2864 203.684C81.5302 203.448 81.7228 203.164 81.8524 202.85C81.982 202.536 82.0458 202.2 82.04 201.86C82.88 194.82 54.78 204.96 63.44 208.2Z" fill="#001434"/>
<path d="M229.84 91.9998C234.58 91.9998 228.6 84.5198 232.8 81.1798C236.7 78.0998 242.16 85.3398 244.96 81.8798C245.142 81.6254 245.27 81.3364 245.336 81.0308C245.402 80.725 245.406 80.409 245.346 80.102C245.286 79.795 245.164 79.5034 244.988 79.2452C244.812 78.9868 244.584 78.7672 244.32 78.5998C236.6 73.4198 231.78 76.2798 229.88 77.4798C224.2 80.9998 225.06 91.9998 229.84 91.9998Z" fill="#001434"/>
<path d="M261.72 218.32C251.28 218.32 245.72 225.72 245.88 232.32C246.06 238.02 250.54 241.52 260.16 241.92C271.12 242.38 276.06 238.56 276.16 232.32C276.26 226.08 271.4 218.54 261.72 218.32ZM260.1 236.78C244.72 238.12 250.94 224.08 260.24 223.56C259.61 227.942 259.562 232.386 260.1 236.78Z" fill="#001434"/>
<path d="M229.56 97.5997C226.68 98.5997 228.58 103.6 231.18 102.02C236.12 98.9997 243.18 104.44 244.02 100.62C244.86 96.7997 234.34 95.3597 229.56 97.5997Z" fill="#001434"/>
<path d="M370.12 261.72C389.88 219.26 376.68 184.42 355.56 167.48C356.08 157.48 352.84 143.7 345.38 136.48C357.38 120.48 349.56 88.8799 330.22 81.7199C339.34 67.3999 329.78 46.1199 312.22 45.7199C307.4 6.49984 182.22 -4.90017 178.74 46.6399C164.48 48.2599 157.18 64.1799 160.74 77.6199C136.74 85.1799 135.6 124.12 148.98 141.4C147.32 144.2 144.12 147.94 142.66 151.64C139.606 148.827 135.857 146.88 131.8 146C102.48 138 23.3199 152.74 24.9599 200.92C4.57992 208.92 15.9199 253.98 28.9599 260.24C-2.50008 295.84 2.95992 386.24 62.1799 387.9C106.32 383.9 164.88 347.18 169.12 310.68C171.26 291.78 164.48 273.84 146.16 269.88C157.261 263.542 165.762 253.482 170.16 241.48C182 245.78 188.84 253.48 190.6 259.48C176.26 274.04 176.34 306.74 192.92 319.76C188.8 345.46 189.78 366.94 207.78 377.76C227.36 389.56 298.08 391.52 320.02 371.26C338.02 382.78 365.52 379.26 376.44 361.66C387.68 343.88 402.86 281.06 370.12 261.72ZM148 96.7399C152.26 83.3199 166.22 82.4199 166 78.7399C165.46 71.1799 164.48 63.6599 168.36 58.1399C169.795 56.1009 171.684 54.4221 173.877 53.2353C176.07 52.0485 178.508 51.3861 181 51.2999C185.52 51.0399 182.24 35.5599 194.06 28.0999C220.98 8.31983 305.68 15.6598 307.7 48.2599C307.744 48.8459 308.004 49.3947 308.428 49.8009C308.852 50.2071 309.412 50.4417 310 50.4599C326.36 49.2199 334.58 69.5599 324.64 81.4999C324.402 81.8063 324.244 82.1665 324.18 82.5487C324.114 82.9309 324.144 83.3231 324.268 83.6907C324.39 84.0585 324.602 84.3903 324.882 84.6571C325.164 84.9237 325.506 85.1171 325.88 85.2199C344.36 89.9799 351.38 116.66 342.8 132.34C339.92 137.64 341.56 138.34 343.46 141.2C348.26 148.3 351.46 157.68 350.74 165.4C343.36 159.8 332.6 158.24 332.6 158.24C327.66 139.1 317.58 127.18 291.52 117.6C301.52 98.2399 301.02 74.7599 293.72 63.9199C285.06 51.0799 264.28 63.9199 267.54 40.9999C268.12 36.9999 263.7 33.8799 260.2 39.2399C243.16 65.4799 195.88 44.3599 182.2 57.5399C170 69.4399 174 106 182.68 116.76C169.26 123.22 158.84 128.42 151.82 137.32C143.7 125.04 144.34 108.26 148 96.7399ZM228.12 134.18C208.76 132 191.06 121.5 184.98 112C180 104 176 72.5399 186 60.5599C188.12 57.4999 202.2 57.5399 209.08 57.8799C217.46 58.3199 218.12 63.1999 221.2 63.4599C223.2 63.6399 224.9 61.0799 221.52 58.1599C236.6 58.9999 256.68 56.5999 262.84 44.3599C262.714 48.4733 263.944 52.5141 266.34 55.8599C258.34 55.8599 255.92 56.4199 256.34 59.0399C256.88 62.5199 271.44 60.2999 279.74 61.5799C300.22 64.7199 295 100.7 287.74 113.58C280.48 126.46 268.14 138.78 228.12 134.18ZM282.9 168.82C265.16 167.96 245.14 170.32 233.04 188.82C230.34 181.28 230.26 170.02 232.54 167.42C236.82 162.58 248.16 166.96 249.66 156.92C251.06 147.62 263.5 145.78 268.54 155.74C270.7 160.04 274.84 160.72 280.94 160.16C284.84 159.84 285.08 167.46 282.9 168.82ZM80.4999 154.1C107.52 147.28 131.8 146.1 142.24 157.82C114.6 147.82 37.6799 166.16 30.0399 198.14C30.4199 186.46 41.0799 164 80.4999 154.1ZM19.9999 231.82C18.4799 221.1 19.9999 217.58 21.5999 213.82C23.5999 209.4 31.0799 209.98 35.9999 229.82C37.1599 234.56 41.2999 234.36 40.3599 230.38C37.3999 217.9 32.8999 206.38 24.7199 206.74C45.9999 198 51.5999 249.6 41.0799 256.12C29.8799 261.26 22.3599 249.16 19.9999 231.82ZM28.5799 365.12C8.11992 336.7 11.4999 287.6 33.9999 262.4C35.6045 262.788 37.2711 262.85 38.8999 262.58C44.6999 277.3 66.1999 285.4 93.3999 284.58C93.6999 285.54 94.0599 286.58 94.4599 287.44C68.6199 307.36 26.2799 336.62 28.4799 365.12H28.5799ZM100.68 253.42C116.82 256.1 124.36 245.66 128.68 250.16C130.68 252.34 133.28 257.92 133.28 270.04C129.329 270.796 125.482 272.018 121.82 273.68C111.1 260.54 94.5199 261.4 92.4599 274.64C90.0999 267.16 93.6599 252.26 100.58 253.42H100.68ZM155.38 280C150.9 280 132.86 286.66 137.02 290.32C139.94 292.86 151.84 284.56 159.32 284.62C161.514 287.828 162.969 291.482 163.58 295.32C154.26 297.76 144.42 302.74 146.54 306.14C148.66 309.54 158.96 302.54 164.38 301.58C170.38 328.78 128.52 366.06 81.0599 378.62C63.1999 383.34 49.2999 384.38 36.4399 373.72C21.9999 350 67.9999 312.4 90.7399 296.74C94.3799 294.26 101.06 289.52 99.8999 287.12C89.8999 266.44 108.78 265.12 119.24 278.48C119.603 278.91 120.1 279.206 120.652 279.318C121.204 279.432 121.778 279.354 122.28 279.1C134.66 273.14 150.14 273.08 155.38 280ZM150.46 260.74C147.78 246.92 141.44 235.72 133.8 234.74C124.42 233.52 120.52 240.06 108.94 241.5C100.6 242.54 92.5999 238.62 85.0799 246.66C81.2535 250.98 78.4073 256.076 76.7363 261.6C75.0655 267.124 74.6095 272.944 75.3999 278.66C62.0199 276.82 48.4599 272.06 43.5599 260.66C50.9799 259.52 54.9999 229.48 46.2799 214.3C53.8599 210.94 56.6799 202.46 57.4799 197.24C66.8199 201.36 79.1799 199.44 89.7799 181.42C97.0199 187.66 113.3 188.18 126.68 170.62C136.02 179.68 145.88 181.46 155.98 176.62C171.16 206 176 239.84 150.46 260.66V260.74ZM173.54 223.9C174.12 207.42 168.66 190.12 161.04 175.26C180 175.2 188.74 211.2 173.54 223.82V223.9ZM173.42 171.66C168.38 170.6 169.78 162.44 170.2 161C173.72 163 179.02 165.8 179.94 163.84C180.86 161.88 175.38 158.58 171.74 156.34C172.85 153.894 174.35 151.645 176.18 149.68C179.88 152 185.26 156.22 187.08 154C188.66 152 183.08 148.88 179.8 146.48C183.731 143.225 188.698 141.487 193.8 141.58C204.76 142.04 207 148.46 210.48 148.5C213.96 148.54 216.62 143.84 220.66 143.44C231.46 142.4 230.96 160.1 228.06 163.44C222.2 170.1 188 174.58 173.42 171.58V171.66ZM195.42 262.26C209.42 250 223.18 241.54 226.88 221.4C232.64 189.6 245.78 178.8 264 174.82C276.32 172.14 281.32 175.22 286.24 173.92C291.8 172.44 292.24 169.14 304.96 165.28C353.54 150.52 393.36 199.52 365.6 259.38C362.022 257.922 358.282 256.902 354.46 256.34C354.46 246.34 351.9 236.54 347.6 230.08C348.68 207.82 319.04 193.54 304.46 207.18C291.18 195.18 298.24 201.48 280.88 210.2C258.12 187.32 222.88 217.52 240.88 243.72C236.054 250.322 233.622 258.37 233.98 266.54C208 275.52 199.12 298 194.38 314.12C179.12 296.54 184.32 271.88 195.36 262.18L195.42 262.26ZM276.18 245.5C250.98 262.56 225.72 224.2 252.76 209.5C256.234 207.882 260.078 207.228 263.89 207.606C267.704 207.984 271.346 209.38 274.434 211.646C277.524 213.914 279.946 216.97 281.45 220.494C282.952 224.018 283.482 227.882 282.98 231.68C280.334 232.708 278.164 234.684 276.896 237.224C275.628 239.766 275.35 242.686 276.12 245.42L276.18 245.5ZM244.36 247.76C253.6 256.08 268.12 256.62 278.54 250.06C280.98 254.32 286.7 251.48 284.06 248.52C280.64 244.7 280.38 241.5 281.62 239.14C284.1 234.42 291.34 235.02 294.34 237.74C301.9 259.96 337.44 259.22 345.92 237.9C350.3 248.68 350.72 265.06 345.12 276.04C327.26 245.9 281.84 259.7 275.72 291.8C250 294.88 228.56 270.86 244.3 247.68L244.36 247.76ZM292.9 231.34C291.37 230.818 289.75 230.62 288.14 230.76C288.462 225.03 287.07 219.334 284.14 214.4C288.192 212.25 291.978 209.632 295.42 206.6C296.932 208.186 298.632 209.582 300.48 210.76C297.782 213.408 295.698 216.616 294.378 220.16C293.058 223.702 292.532 227.492 292.84 231.26L292.9 231.34ZM307.76 211.2C321.76 197.88 349.76 218 341 236.44C323.5 267.72 277.26 235.46 307.7 211.12L307.76 211.2ZM204.34 369C187.14 350.08 195.92 286.62 234.72 271.66C239.02 288.74 257.54 298.58 275.64 296.86C278.06 313.84 289.1 325.46 299.88 318.2C301.452 322.598 302.518 327.16 303.06 331.8C292.24 325.8 277.06 322.66 256.8 322.26C255.26 315.96 253.34 308.96 249.88 309.86C247.2 310.54 249.02 314.58 250.78 322.28C224.14 325.74 197.88 341.56 204.34 369ZM316.94 366.24C316.392 368.108 315.23 369.736 313.64 370.86C312.18 356.72 307.64 353.18 305.3 354.48C302.58 355.92 309.94 363.92 308.22 373.98C305.038 375.358 301.756 376.488 298.4 377.36C297.64 370.44 296.22 359.82 291.6 362.72C289.12 364.26 292.58 368.3 292.3 378.84C269.92 383.86 230.14 384.7 209.86 373.16C192.74 311.6 324.36 312.96 316.94 366.24ZM347.68 372.24C342.62 372.9 330.36 373.58 322.2 366.4C324.58 354.78 318.64 343.28 308.5 335.36C308 326.44 304.34 311.6 298.5 303.52C295.78 299.76 291.32 295.12 288.98 297.88C286.32 301.04 296.16 306.6 297.54 312.68C287.26 324.44 273.54 291.02 285.88 280.56C293.44 281.34 300.16 284.56 301.66 282.56C303.66 279.7 294.96 276.56 289.82 276C292.624 273.092 295.814 270.582 299.3 268.54C307.08 269.18 312.2 273.04 314.78 270.7C316.68 268.98 311.12 266.02 306.78 265C321.82 261.52 333.58 265.74 342.64 279.94C362.5 311.1 376.68 366.46 347.68 372.24ZM363.94 367.88C378.32 348.72 360.48 300.36 348.26 280.66C351.734 274.824 353.788 268.254 354.26 261.48C381.24 264.36 386.98 292.84 385.2 313.64C382.56 343.74 374.28 361.26 364 367.88H363.94Z" fill="#001434"/>
<path d="M254.54 105.6C251.842 107.087 248.784 107.794 245.708 107.642C242.632 107.49 239.658 106.485 237.12 104.74C231.32 107.96 221.12 106.74 218.7 104.62C218.48 104.391 218.214 104.213 217.92 104.096C217.626 103.979 217.31 103.926 216.994 103.941C216.678 103.956 216.368 104.039 216.086 104.183C215.804 104.328 215.556 104.531 215.36 104.78C211.96 110.98 229.9 113.64 237.12 110.12C242.2 113.48 258.62 112.98 257.64 106.82C257.44 105.54 255.74 105.08 254.54 105.6Z" fill="#001434"/>
<path d="M317.56 243.22C329.96 243.66 335.24 239.22 334.98 232.3C334.72 225.38 329.22 218.64 319.24 218.3C308.76 218.3 302.78 225.1 302.22 231.66C301.66 238.22 306.4 242.82 317.56 243.22ZM309.56 227.22C311.424 225.182 313.972 223.902 316.72 223.62C316.02 228.402 316.02 233.258 316.72 238.04C307.5 238.36 304.44 234.28 309.52 227.24L309.56 227.22Z" fill="#001434"/>
<path d="M80.6601 207.339C62.0801 205.079 44.8001 224.92 57.5601 238.1C67.3601 248.22 97.9201 238.099 97.9001 225.219C97.8801 214.939 91.4201 208.659 80.6601 207.339ZM77.2201 235.639C78.5001 227.639 76.2801 218.319 74.4601 212.639C92.5201 208.859 102.92 231.219 77.2201 235.639Z" fill="#001434"/>
<path d="M133.86 189.52C137.98 188.56 142.88 189.12 144.18 186.42C147.16 180.18 119.14 183.82 124.18 191.04C125.64 193.02 129.44 190.54 133.86 189.52Z" fill="#001434"/>
<path d="M124.96 198.219C115.64 204.219 116.96 220.379 123.42 224.619C134.54 231.999 160 225.239 162 212.459C165.48 191.619 139.04 189.039 124.96 198.219ZM156.96 211.839C156.72 215.839 147.48 220.659 142.3 221.639C142.703 213.721 142.152 205.785 140.66 197.999C149.14 196.839 157.68 200.779 156.98 211.839H156.96Z" fill="#001434"/>
<path d="M282 68.5597C277.64 65.4597 261.48 64.3397 256.28 66.8597C249.18 70.3197 247.54 86.8597 255.16 91.3797C261.16 94.9597 273.8 96.2397 280.12 92.6797C286.44 89.1197 289 73.5997 282 68.5597ZM257 86.9397C264.04 83.7797 274.08 78.8197 280.38 73.7797C286.48 90.1197 269.24 93.6797 257 86.9397Z" fill="#001434"/>
<path d="M276 262.62C279.716 264.62 283.966 265.408 288.152 264.87C292.338 264.332 296.25 262.496 299.34 259.62C302.24 256.58 299.34 252.68 296.38 255.62C293.42 258.56 285.14 261.36 278.26 257.92C277.636 257.62 276.92 257.58 276.268 257.81C275.614 258.038 275.08 258.516 274.78 259.14C274.48 259.764 274.44 260.48 274.67 261.132C274.898 261.786 275.376 262.32 276 262.62Z" fill="#001434"/>
<path d="M109.74 212.7C109.103 212.458 108.397 212.48 107.776 212.76C107.156 213.038 106.671 213.554 106.43 214.19C106.189 214.826 106.21 215.532 106.489 216.154C106.769 216.774 107.283 217.258 107.92 217.5C114.18 220.56 112.22 230.68 104.56 231.5C103.913 231.608 103.333 231.96 102.938 232.484C102.544 233.008 102.365 233.664 102.439 234.316C102.514 234.966 102.835 235.564 103.338 235.986C103.84 236.408 104.485 236.62 105.14 236.58C117.44 236 121.14 216.9 109.74 212.7Z" fill="#001434"/>
</svg>
